<svg width="361" height="207" viewBox="0 0 361 207" fill="none" xmlns="http://www.w3.org/2000/svg">
<path d="M257.513 0C314.482 0.000114928 361 46.0581 361 103.143C361 160.227 314.712 206.4 257.742 206.4C226.923 206.4 199.305 192.915 180.357 171.531C161.462 192.85 133.874 206.286 103.143 206.286C46.1729 206.286 0 160.112 0 103.143C0.000232312 46.1731 46.1731 0.000238067 103.143 0C133.833 0 161.423 13.4006 180.329 34.6699C199.163 13.3829 226.794 0 257.513 0ZM153.566 138.29C138.635 141.506 121.52 143.458 103.258 143.458C84.9955 143.458 67.7668 141.621 52.9502 138.29C56.0514 150.695 60.5306 161.607 66.2734 170.565C76.9553 187.449 90.2793 195.949 103.373 195.949C116.467 195.949 129.79 187.449 140.472 170.565C145.87 161.607 150.465 150.695 153.566 138.29ZM12.4043 122.324C18.6066 152.187 39.2814 176.882 66.7324 188.598C55.017 175.963 46.0586 157.356 41.5791 135.533C29.5189 131.973 19.5255 127.493 12.4043 122.324ZM193.996 122.324C186.875 127.493 176.882 131.973 164.822 135.533C160.343 157.356 151.384 175.963 139.668 188.598C167.119 176.767 187.794 152.187 193.996 122.324ZM321.145 113.939C318.847 113.25 316.55 114.629 315.976 116.812C315.287 118.994 316.665 121.405 318.847 121.979C319.306 122.209 319.766 122.325 320.226 122.439C315.287 135.074 306.672 145.87 295.53 153.565C284.159 161.261 270.721 165.396 256.938 165.396C243.156 165.282 229.717 161.147 218.461 153.222C211.599 148.497 205.73 142.45 201.067 135.621C199.981 138.898 198.736 142.102 197.339 145.225C202.02 151.13 207.49 156.246 213.637 160.572C226.386 169.531 241.662 174.241 257.168 174.355C272.789 174.355 287.95 169.761 300.814 160.917C313.449 152.303 323.097 140.013 328.725 125.771L329.759 126.229C331.826 127.148 334.353 126.229 335.271 124.162C336.19 122.095 335.272 119.567 333.204 118.648L330.792 117.5C327.691 116.007 324.475 114.858 321.145 113.939ZM103.143 73.3945C83.5021 73.3946 65.4695 75.5766 50.5381 79.252C49.2747 86.8325 48.7002 94.8729 48.7002 103.143C48.7002 111.412 49.3895 119.453 50.5381 127.033C65.4696 130.709 83.502 132.892 103.143 132.892C122.783 132.892 140.816 130.709 155.748 127.033C157.011 119.453 157.586 111.412 157.586 103.143C157.586 94.8729 156.897 86.8325 155.748 79.252C140.816 75.5765 122.783 73.3945 103.143 73.3945ZM39.5117 82.4688C37.5591 83.1579 35.7206 83.7321 33.8828 84.5361C25.2687 87.867 18.952 91.6576 15.0469 95.333C11.2569 98.7785 10.3371 101.535 10.3369 103.143C10.3369 104.865 11.1417 107.508 15.0469 111.184C18.952 114.859 25.269 118.534 33.8828 121.979C35.7206 122.669 37.5591 123.358 39.5117 124.047C38.5929 117.385 38.248 110.379 38.248 103.258C38.2481 96.1367 38.7077 89.1305 39.5117 82.4688ZM166.774 82.3535C167.693 89.0152 168.038 96.0215 168.038 103.143C168.038 110.264 167.578 117.271 166.774 123.933C168.727 123.244 170.565 122.669 172.402 121.865C181.017 118.534 187.334 114.744 191.239 111.068C195.144 107.393 195.949 104.751 195.949 103.028C195.949 101.305 195.144 98.6638 191.239 94.9883C187.334 91.3128 181.017 87.6372 172.402 84.1914C170.565 83.732 168.727 83.0426 166.774 82.3535ZM230.865 50.8818C225.582 50.8819 221.217 61.5644 221.217 74.6582C221.217 87.7519 225.582 98.4335 230.865 98.4336C236.149 98.4336 240.514 87.752 240.514 74.6582C240.514 61.5643 236.149 50.8818 230.865 50.8818ZM284.849 50.8818C279.565 50.8821 275.201 61.5645 275.201 74.6582C275.201 87.7518 279.565 98.4333 284.849 98.4336C290.247 98.4336 294.497 87.752 294.497 74.6582C294.497 61.5643 290.132 50.8818 284.849 50.8818ZM66.6182 17.8027C39.1671 29.5183 18.4925 54.2131 12.29 84.0762C19.4112 78.9076 29.4039 74.3139 41.4639 70.8682C46.0582 49.045 55.0174 30.4372 66.6182 17.8027ZM139.668 17.8027C151.384 30.4372 160.343 49.045 164.822 70.8682C176.882 74.4287 186.875 78.9076 193.996 84.0762C187.794 54.2131 167.119 29.5183 139.668 17.8027ZM103.143 10.3369C90.0489 10.3371 76.7254 18.8368 66.2734 35.7207C60.5305 44.6796 56.0514 55.5915 52.9502 67.9961C67.7668 64.7801 84.9955 62.9424 103.258 62.9424C121.52 62.9424 138.635 64.7801 153.566 67.9961C150.465 55.7063 145.87 44.6797 140.242 35.7207C129.56 18.8367 116.236 10.3369 103.143 10.3369Z" fill="white"/>
</svg>
