<svg width="199" height="42" viewBox="0 0 199 42" fill="none" xmlns="http://www.w3.org/2000/svg">
<path d="M192.59 29.1396C196.184 29.1396 199 31.8622 199 35.5361C199 39.2099 196.183 41.9316 192.59 41.9316C189.023 41.9316 186.207 39.2098 186.207 35.5361C186.207 31.8622 189.023 29.1397 192.59 29.1396ZM21.3213 0C27.3291 4.09104e-05 32.3887 1.98756 36.4541 6.00781C40.5646 10.0281 42.5967 14.9974 42.5967 20.96C42.5966 26.9223 40.5644 31.891 36.4541 35.9111C32.3435 39.9314 27.2839 41.9199 21.3213 41.9199C15.3134 41.9199 10.2539 39.9314 6.18848 35.9111C2.0329 31.8909 5.22971e-05 26.9224 0 20.96C0 14.9973 2.03292 10.0281 6.14355 6.00781C10.2542 1.9876 15.3135 0 21.3213 0ZM115.504 0C121.512 0 126.571 1.98761 130.637 6.00781C134.747 10.0281 136.78 14.9973 136.78 20.96C136.78 26.9225 134.747 31.8909 130.637 35.9111C126.526 39.9314 121.467 41.9199 115.504 41.9199C109.496 41.9198 104.437 39.9313 100.372 35.9111C96.2616 31.8909 94.2286 26.9225 94.2285 20.96C94.2285 14.9973 96.2614 10.0281 100.372 6.00781C104.437 1.98772 109.496 0.000101934 115.504 0ZM80.2256 24.2568L88.3105 0.90332H98.1133L83.9746 41.4678H77.2441L68.3447 13.2803L59.5361 41.4678H52.8057L38.667 0.948242H48.4697L56.4648 24.2568L63.6475 0.90332H73.0879L80.2256 24.2568ZM174.408 24.2568L182.494 0.90332H192.297L178.112 41.4678H171.382L162.483 13.2803L153.675 41.4678H146.944L132.851 0.948242H142.652L150.648 24.2568L157.83 0.90332H167.271L174.408 24.2568ZM192.59 30.2227C189.667 30.2227 187.468 32.4437 187.468 35.5361C187.468 38.6283 189.667 40.8486 192.59 40.8486C195.54 40.8486 197.739 38.6284 197.739 35.5361C197.739 32.4436 195.54 30.2227 192.59 30.2227ZM192.885 31.9941C194.574 31.9941 195.46 32.7341 195.46 34.0557C195.46 35.0334 194.843 35.6147 193.958 35.8262V35.8525C195.755 36.1434 195.192 38.813 195.594 38.9453V39.0244H193.797C193.448 38.7069 194.038 36.54 192.349 36.54H191.678V39.0244H189.908V31.9941H192.885ZM191.678 35.1396H192.429C193.126 35.1396 193.771 34.9804 193.771 34.2139C193.77 33.4476 193.126 33.3154 192.429 33.3154H191.678V35.1396ZM21.3213 7.86035C17.9334 7.86035 15.0872 9.12447 12.7383 11.6992C10.4345 14.274 9.25977 17.3462 9.25977 20.96C9.25982 24.5736 10.4346 27.6453 12.7383 30.1748C15.042 32.7044 17.9334 33.9688 21.3213 33.9688C24.709 33.9687 27.5545 32.7042 29.9033 30.1748C32.207 27.6904 33.3818 24.6188 33.3818 20.96C33.3818 17.3462 32.2071 14.274 29.9033 11.6992C27.5997 9.12472 24.7089 7.8604 21.3213 7.86035ZM115.504 7.86035C112.116 7.86047 109.271 9.1247 106.922 11.6992C104.618 14.274 103.443 17.3462 103.443 20.96C103.443 24.5736 104.618 27.6452 106.922 30.1748C109.226 32.7043 112.116 33.9686 115.504 33.9688C118.892 33.9688 121.738 32.7044 124.087 30.1748C126.391 27.6904 127.565 24.6188 127.565 20.96C127.565 17.3462 126.391 14.274 124.087 11.6992C121.783 9.12457 118.892 7.86035 115.504 7.86035Z" fill="white"/>
</svg>
